<svg width="33" height="33" viewBox="0 0 33 33" fill="none" xmlns="http://www.w3.org/2000/svg">
<path fill-rule="evenodd" clip-rule="evenodd" d="M0.970596 1.88559H32.0294V32.0571H0.970596V1.88559Z" fill="#445161"/>
<path d="M15.7676 8.45471H17.2324C17.3626 8.45471 17.4277 8.5179 17.4277 8.64428V25.3263C17.4277 25.4526 17.3626 25.5158 17.2324 25.5158H15.7676C15.6374 25.5158 15.5723 25.4526 15.5723 25.3263V8.64428C15.5723 8.5179 15.6374 8.45471 15.7676 8.45471Z" fill="white"/>
<path d="M8.29688 16.0848H24.7031C24.8333 16.0848 24.8984 16.148 24.8984 16.2744V17.6962C24.8984 17.8225 24.8333 17.8857 24.7031 17.8857H8.29688C8.16667 17.8857 8.10156 17.8225 8.10156 17.6962V16.2744C8.10156 16.148 8.16667 16.0848 8.29688 16.0848Z" fill="white"/>
</svg>
